<?xml version="1.0" standalone="no"?>
<!DOCTYPE svg PUBLIC "-//W3C//DTD SVG 20010904//EN"
 "http://www.w3.org/TR/2001/REC-SVG-20010904/DTD/svg10.dtd">
<svg version="1.0" xmlns="http://www.w3.org/2000/svg"
 width="619.000000pt" height="545.000000pt" viewBox="0 0 619.000000 545.000000"
 preserveAspectRatio="xMidYMid meet">

<g transform="translate(0.000000,545.000000) scale(0.100000,-0.100000)"
fill="#000000" stroke="none">
<path d="M2855 5390 c-479 -45 -900 -190 -1275 -441 -250 -167 -442 -347 -676
-634 -199 -244 -396 -673 -468 -1020 -95 -458 -84 -839 38 -1266 67 -234 148
-424 267 -621 139 -229 261 -382 438 -548 294 -275 500 -411 851 -563 254
-110 605 -192 890 -207 136 -7 447 2 515 14 243 45 405 81 470 106 44 16 84
30 88 30 5 0 61 20 125 45 373 145 782 443 1064 775 30 36 104 137 163 225
178 262 286 511 355 815 34 152 70 419 70 523 l0 70 156 -6 c158 -7 194 -2
194 28 0 31 -40 38 -195 33 l-152 -5 -6 146 c-15 415 -180 902 -442 1302 -225
343 -607 691 -975 887 -289 155 -669 272 -975 301 -160 15 -416 21 -520 11z
m163 -177 l-3 -98 -135 -7 c-159 -7 -233 -19 -393 -59 -227 -56 -477 -162
-669 -283 -265 -166 -569 -446 -708 -651 -162 -237 -232 -374 -315 -610 -80
-227 -124 -459 -125 -651 0 -108 5 -104 -132 -104 l-88 0 0 74 c0 82 31 326
56 438 81 368 255 758 444 992 30 38 69 87 86 110 105 140 429 421 639 554
132 84 380 204 507 247 174 58 376 105 513 120 71 8 144 16 160 18 17 2 61 5
98 6 l68 1 -3 -97z m337 77 c220 -26 314 -44 455 -87 452 -136 753 -316 1124
-673 164 -158 257 -277 398 -510 210 -346 342 -790 351 -1180 l2 -85 -101 -3
-102 -3 -6 98 c-22 318 -83 578 -200 845 -161 369 -416 682 -788 966 -213 162
-559 319 -883 401 -93 23 -295 50 -410 53 l-80 3 -3 98 -3 97 38 0 c21 0 115
-9 208 -20z m-32 -276 c205 -22 319 -47 491 -105 285 -96 508 -222 746 -422
495 -414 756 -902 821 -1532 24 -234 -8 -639 -66 -839 -31 -109 -115 -317
-171 -430 -94 -186 -258 -408 -411 -557 -194 -189 -360 -310 -582 -423 -360
-183 -731 -266 -1140 -253 -374 11 -634 75 -976 242 -463 227 -822 577 -1049
1023 -94 187 -133 286 -171 445 -56 233 -67 319 -67 547 0 396 61 667 225
1003 203 415 520 763 909 996 216 130 480 237 678 275 227 44 529 56 763 30z
m-2715 -2334 l52 0 0 -60 c0 -71 21 -216 55 -388 63 -309 177 -565 374 -842
109 -152 340 -398 461 -490 415 -314 897 -501 1363 -527 l117 -6 0 -100 0
-100 -107 7 c-499 33 -993 205 -1372 480 -135 98 -350 286 -443 389 -363 399
-592 925 -648 1486 -15 152 -15 149 23 154 17 2 41 3 52 1 11 -2 44 -4 73 -4z
m5079 -5 c10 -7 -40 -427 -60 -505 -13 -52 -32 -131 -42 -175 -16 -75 -78
-258 -95 -280 -4 -5 -35 -63 -68 -128 -106 -204 -276 -446 -425 -603 -252
-267 -599 -501 -932 -629 -278 -107 -580 -171 -882 -188 -61 -3 -61 -3 -67 26
-8 38 -8 106 0 146 l7 31 71 0 c86 0 279 24 396 50 356 77 722 249 1001 471
47 37 91 69 99 71 8 2 25 17 39 33 14 17 52 59 86 95 89 94 305 374 305 395 0
4 20 37 44 74 88 133 177 340 232 541 31 114 63 310 80 500 3 41 8 78 11 82 3
6 192 0 200 -7z"/>
<path d="M3001 4598 c-130 -169 -181 -245 -181 -269 0 -26 27 -59 47 -59 6 0
42 33 81 74 63 66 71 72 76 53 3 -12 6 -147 6 -299 l0 -276 -27 -6 c-16 -2
-50 -7 -78 -11 -173 -21 -407 -123 -546 -239 l-52 -43 -114 116 c-114 115
-115 116 -103 146 64 164 48 284 -50 368 -67 57 -139 80 -228 73 -90 -7 -128
-23 -186 -76 -87 -81 -115 -221 -64 -331 59 -130 150 -184 291 -177 67 4 84 9
121 35 l43 30 116 -118 c64 -65 117 -122 117 -126 0 -5 -16 -24 -35 -43 -50
-49 -138 -199 -179 -307 -37 -96 -66 -233 -66 -314 l0 -48 -52 -6 c-29 -3
-114 -5 -188 -3 l-135 3 0 -30 0 -30 185 -5 185 -5 7 -75 c21 -202 138 -469
259 -588 l34 -34 -49 -44 c-27 -25 -61 -60 -75 -78 -14 -18 -44 -53 -67 -79
l-41 -47 -55 30 c-73 39 -145 47 -226 25 -241 -68 -279 -423 -58 -538 29 -14
66 -22 127 -25 72 -4 93 -1 137 18 99 43 172 153 172 260 0 49 -25 146 -43
168 -7 10 14 38 90 115 55 56 107 113 116 127 l17 24 15 -21 c27 -39 152 -123
256 -172 114 -54 231 -86 352 -96 l77 -7 0 -182 0 -182 -52 -19 c-112 -40
-178 -137 -178 -260 0 -119 47 -193 157 -246 57 -28 158 -31 214 -7 103 45
169 147 169 263 0 128 -75 232 -184 255 l-51 10 3 173 c1 94 4 177 6 183 2 6
40 14 84 17 195 15 404 103 560 234 34 30 62 48 62 42 0 -6 41 -54 92 -105 77
-79 94 -92 107 -82 13 10 14 10 4 -2 -10 -11 -10 -17 2 -30 13 -15 12 -23 -10
-78 -28 -69 -33 -157 -13 -223 16 -55 69 -113 138 -150 32 -18 57 -35 55 -39
-2 -3 36 -2 83 1 175 13 262 84 294 240 13 62 12 71 -9 140 -26 88 -67 140
-132 173 -90 46 -193 43 -292 -9 l-46 -24 -30 32 c-17 18 -56 65 -88 105 -32
40 -66 77 -76 83 -27 14 -24 24 24 93 139 199 207 356 229 532 14 109 7 104
148 104 84 0 101 3 148 27 l54 28 -74 6 c-40 4 -115 7 -165 8 -106 1 -93 -13
-113 126 -32 212 -110 391 -238 543 l-44 52 60 68 c33 37 84 90 114 119 l53
52 65 -32 c54 -27 75 -32 135 -32 60 1 79 6 134 35 38 20 75 50 91 72 39 53
63 149 55 213 -6 54 -45 147 -73 179 -70 78 -233 110 -332 65 -55 -24 -125
-90 -151 -142 -11 -22 -23 -69 -26 -105 -5 -63 3 -101 40 -192 4 -10 -30 -53
-103 -130 l-109 -114 -48 40 c-134 112 -375 214 -557 237 l-101 13 -3 302 c-1
173 2 302 7 302 5 0 28 -25 51 -56 75 -96 115 -116 146 -69 21 32 13 53 -50
128 -28 34 -80 99 -115 145 -78 101 -93 104 -150 30z m-1091 -459 c48 -11 110
-62 136 -111 18 -35 18 -126 -1 -171 -20 -49 -73 -107 -112 -123 -96 -41 -235
20 -272 119 -15 40 -14 141 3 180 19 45 78 95 123 102 21 4 45 8 53 10 8 1 17
3 20 4 3 0 25 -4 50 -10z m2455 -13 c66 -30 101 -73 116 -140 15 -67 7 -109
-31 -169 -36 -58 -78 -84 -146 -93 -69 -8 -114 8 -158 56 -47 53 -66 101 -66
170 0 49 5 65 33 106 60 90 155 116 252 70z m-1142 -411 c224 -40 396 -126
556 -279 89 -86 136 -154 201 -289 92 -192 119 -374 85 -579 -21 -128 -35
-170 -92 -283 -80 -159 -201 -309 -308 -379 -83 -56 -226 -123 -321 -153 -82
-25 -103 -27 -259 -27 -218 -1 -313 20 -480 106 -85 44 -138 81 -215 154 -170
161 -273 356 -310 587 -22 134 -1 368 43 492 87 242 264 442 493 559 61 30
234 84 324 99 59 10 201 6 283 -8z m-1266 -2026 c80 -38 131 -153 104 -231
-17 -48 -60 -105 -95 -127 -17 -11 -55 -23 -84 -27 -46 -6 -60 -3 -117 25 -74
37 -99 73 -111 160 -11 87 35 169 121 216 39 21 120 14 182 -16z m2408 12
c119 -54 160 -215 83 -324 -57 -80 -219 -102 -294 -41 -111 89 -106 264 10
340 71 47 135 55 201 25z m-1222 -527 c98 -50 137 -132 105 -225 -26 -77 -78
-119 -165 -134 -85 -14 -182 62 -198 154 -13 76 28 159 100 202 38 24 115 25
158 3z"/>
<path d="M3020 3556 c0 -56 8 -66 52 -66 l39 0 -3 48 -3 47 -42 3 c-43 3 -43
3 -43 -32z"/>
<path d="M2925 3356 c-188 -54 -370 -199 -440 -351 -52 -114 -60 -153 -60
-285 0 -155 22 -234 95 -343 116 -174 299 -278 513 -293 111 -8 167 2 295 54
78 31 108 50 184 117 103 90 140 148 184 281 24 75 26 92 22 205 -4 116 -7
129 -42 214 -46 108 -87 167 -169 240 -118 104 -269 164 -432 171 -67 3 -116
-1 -150 -10z m233 -107 c2 -17 -6 -37 -21 -54 -19 -23 -32 -28 -71 -29 -42 -1
-51 3 -72 29 -49 62 -24 86 86 82 73 -2 75 -3 78 -28z m-263 -64 c34 -42 36
-48 25 -74 -20 -48 -47 -71 -86 -71 -47 0 -68 12 -95 57 l-23 37 54 48 c30 26
61 48 71 48 9 0 33 -20 54 -45z m432 30 c55 -23 103 -63 103 -86 0 -11 -13
-34 -29 -50 -25 -25 -37 -29 -81 -29 -44 0 -56 4 -81 29 -36 36 -36 56 -2 109
30 47 38 49 90 27z m-197 -137 c37 -19 46 -29 48 -54 2 -22 -4 -40 -21 -60
-22 -25 -29 -28 -88 -26 -55 1 -67 5 -86 27 -30 35 -29 66 5 97 47 44 78 48
142 16z m-446 -20 c21 -29 20 -63 -1 -100 -17 -27 -21 -29 -62 -25 -54 6 -64
21 -45 66 31 75 79 101 108 59z m870 -50 c51 -80 49 -88 -21 -88 -36 0 -44 4
-62 34 -12 18 -21 39 -21 46 0 17 39 80 50 80 4 0 29 -32 54 -72z m-671 -53
c22 -16 37 -34 37 -46 0 -11 -17 -49 -37 -84 -35 -61 -39 -65 -73 -65 -52 0
-95 46 -95 101 0 35 6 46 42 80 49 46 74 48 126 14z m486 -5 c23 -17 49 -46
57 -64 14 -29 15 -37 3 -61 -16 -33 -53 -61 -91 -69 -34 -8 -50 9 -95 97 l-32
62 22 24 c45 48 80 51 136 11z m-778 -101 c31 -16 79 -89 79 -120 0 -37 -45
-89 -77 -89 -79 0 -114 99 -66 193 14 29 32 33 64 16z m559 -25 c44 -40 67
-96 56 -140 -4 -15 -25 -45 -47 -67 -38 -38 -41 -39 -96 -35 -47 4 -61 10 -84
36 -44 49 -56 102 -35 156 21 55 65 86 123 86 35 0 50 -6 83 -36z m475 -5 c4
-6 9 -37 12 -69 5 -53 3 -61 -20 -83 -28 -29 -92 -45 -116 -30 -9 5 -22 27
-29 48 -25 77 23 145 104 145 23 0 46 -5 49 -11z m-776 -151 c5 -13 21 -38 35
-57 34 -46 33 -73 -6 -106 -41 -34 -81 -28 -125 19 -74 79 -45 165 55 166 24
0 35 -6 41 -22z m540 -7 c24 -22 31 -38 31 -66 0 -46 -32 -93 -76 -111 -39
-16 -68 -8 -104 30 -20 22 -22 30 -12 44 6 9 21 35 33 57 45 84 76 95 128 46z
m-774 -101 c26 -10 55 -62 55 -99 0 -11 -11 -32 -24 -48 -24 -27 -24 -28 -45
-9 -27 24 -71 113 -71 143 0 19 5 23 29 23 16 0 41 -4 56 -10z m950 -36 c40
-41 -48 -198 -95 -169 -7 4 -18 23 -26 42 -13 30 -13 38 2 68 15 33 66 74 91
75 6 0 19 -7 28 -16z m-405 -36 c25 -27 25 -54 1 -94 -24 -40 -76 -59 -116
-44 -59 22 -85 49 -85 87 0 59 21 73 106 73 62 0 76 -3 94 -22z m-293 -98 c39
-23 67 -64 57 -82 -4 -7 -21 -29 -38 -49 l-30 -36 -43 14 c-51 18 -103 63
-103 91 0 11 12 34 26 51 31 37 81 42 131 11z m500 -19 c30 -44 39 -80 26
-100 -14 -22 -83 -61 -110 -61 -32 0 -67 70 -59 118 13 85 98 110 143 43z
m-246 -112 c30 -12 66 -66 52 -80 -20 -20 -116 -32 -162 -20 -41 12 -43 14
-37 44 3 17 16 42 29 55 23 24 57 25 118 1z"/>
<path d="M3660 3341 c0 -6 -6 -11 -13 -11 -7 0 -21 -6 -31 -13 -17 -13 -17
-15 6 -42 24 -27 25 -27 50 -11 41 27 44 53 6 47 -4 0 -5 5 -2 13 3 8 1 17 -5
21 -6 3 -11 1 -11 -4z"/>
<path d="M2476 3321 c-21 -23 -26 -50 -14 -73 12 -24 30 -22 56 5 27 28 28 49
4 70 -23 21 -25 21 -46 -2z"/>
<path d="M2233 2760 c-20 -8 -23 -17 -23 -60 l0 -50 40 0 40 0 0 60 c0 65 -7
70 -57 50z"/>
<path d="M3854 2725 c-9 -61 -1 -75 40 -75 37 0 46 14 46 83 0 37 -1 37 -39
37 -39 0 -40 0 -47 -45z"/>
<path d="M3647 2189 c-31 -23 -29 -47 4 -80 18 -18 19 -18 29 1 12 22 14 100
3 100 -5 0 -21 -10 -36 -21z"/>
<path d="M2470 2165 l-23 -25 23 -25 c30 -32 52 -32 67 0 9 21 8 29 -9 50 -24
31 -29 31 -58 0z"/>
<path d="M3020 1901 c0 -37 2 -39 36 -46 43 -8 50 -2 59 48 l7 37 -51 0 -51 0
0 -39z"/>
<path d="M2534 4240 c22 -11 42 -20 45 -20 12 0 -36 28 -59 34 -14 4 -8 -2 14
-14z"/>
<path d="M2406 4208 c-9 -12 -16 -38 -16 -58 1 -43 14 -24 29 38 10 48 8 51
-13 20z"/>
<path d="M3741 4155 c0 -16 -10 -45 -21 -63 -12 -19 -16 -31 -10 -27 19 12 41
66 37 93 -4 26 -4 26 -6 -3z"/>
<path d="M4555 3388 c16 -6 36 -18 44 -25 19 -19 30 -84 19 -114 -8 -23 -7
-23 7 -5 42 55 -14 158 -83 155 -9 0 -4 -5 13 -11z"/>
<path d="M1521 3334 c0 -11 3 -14 6 -6 3 7 2 16 -1 19 -3 4 -6 -2 -5 -13z"/>
<path d="M5031 2983 c0 -24 -3 -43 -5 -43 -2 0 -28 12 -56 26 -111 56 -239 39
-331 -44 -60 -54 -79 -95 -86 -187 -4 -57 -1 -81 17 -128 27 -72 54 -103 124
-146 73 -44 153 -51 244 -23 39 13 62 16 62 9 0 -14 44 33 46 50 1 7 11 25 22
40 50 71 70 159 52 236 -15 63 -46 126 -65 134 -8 3 -13 8 -11 12 2 3 0 29 -4
56 l-7 50 -2 -42z m-93 -99 c64 -48 85 -80 90 -141 8 -92 -43 -188 -115 -218
-42 -18 -110 -19 -150 -4 -82 31 -144 146 -128 239 8 48 62 121 107 144 53 27
144 18 196 -20z"/>
<path d="M1220 2991 c-121 -40 -210 -155 -209 -271 0 -72 17 -118 68 -184 73
-94 212 -135 325 -97 49 17 119 81 154 140 24 40 27 57 27 131 0 101 -15 149
-63 202 -53 59 -102 80 -197 84 -44 2 -91 0 -105 -5z m134 -72 c52 -14 133
-91 147 -139 24 -80 -22 -195 -100 -247 -57 -38 -166 -28 -219 21 -37 33 -71
98 -78 148 -12 85 52 181 143 214 47 16 58 17 107 3z"/>
<path d="M1560 2233 c-22 -20 -32 -40 -35 -68 l-5 -40 11 36 c14 48 49 80 96
89 l38 8 -37 1 c-28 1 -46 -6 -68 -26z"/>
<path d="M2407 1354 c-11 -12 -8 -57 7 -84 13 -23 14 -21 9 25 -6 64 -7 68
-16 59z"/>
<path d="M3556 1344 c-8 -22 -8 -54 2 -54 4 0 7 16 8 35 1 39 -1 42 -10 19z"/>
<path d="M1423 926 c-22 -12 -63 -58 -63 -70 0 -17 36 -2 66 28 48 48 46 69
-3 42z"/>
<path d="M73 2734 c-3 -9 -2 -24 4 -33 9 -13 28 -16 108 -14 82 1 100 5 115
21 18 19 18 20 -6 31 -14 6 -68 11 -120 11 -78 0 -96 -3 -101 -16z"/>
<path d="M5158 433 c12 -2 30 -2 40 0 9 3 -1 5 -23 4 -22 0 -30 -2 -17 -4z"/>
</g>
</svg>
